<?xml version="1.0" standalone="no"?>
<!DOCTYPE svg PUBLIC "-//W3C//DTD SVG 20010904//EN"
 "http://www.w3.org/TR/2001/REC-SVG-20010904/DTD/svg10.dtd">
<svg version="1.0" xmlns="http://www.w3.org/2000/svg"
 width="1024.000000pt" height="1024.000000pt" viewBox="0 0 1024.000000 1024.000000"
 preserveAspectRatio="xMidYMid meet">
<metadata>
Created by potrace 1.16, written by Peter Selinger 2001-2019
</metadata>
<g transform="translate(0.000000,1024.000000) scale(0.100000,-0.100000)"
fill="#000000" stroke="none">
<path d="M0 5120 l0 -5120 5120 0 5120 0 0 5120 0 5120 -5120 0 -5120 0 0
-5120z m4480 3905 c69 -8 190 -26 270 -40 162 -28 780 -108 965 -125 66 -6
147 -15 180 -20 33 -5 195 -20 360 -34 568 -49 580 -51 638 -115 37 -42 67
-120 67 -177 0 -46 -27 -122 -57 -162 -14 -18 -47 -50 -74 -70 l-50 -37 63 -6
c133 -14 190 -44 230 -123 26 -50 26 -111 0 -213 -20 -76 -19 -83 7 -83 30 0
95 -41 148 -92 53 -52 72 -93 54 -111 -8 -8 -11 -6 -11 6 0 9 -4 17 -10 17 -5
0 -9 -33 -9 -75 1 -90 -30 -239 -43 -206 -4 12 -16 21 -26 21 -11 0 -25 7 -32
15 -8 10 -9 15 -2 15 13 0 10 79 -3 100 -6 9 -4 11 6 5 11 -7 12 -6 2 7 -7 8
-10 18 -6 22 4 4 -1 4 -11 0 -15 -6 -17 -4 -11 6 5 8 4 11 -2 7 -6 -4 -24 0
-40 8 -17 8 -49 16 -71 17 -23 1 -40 4 -38 7 2 3 -9 6 -25 6 -16 0 -29 -3 -29
-7 0 -4 -10 -4 -22 1 -13 4 -42 7 -65 6 -24 0 -43 2 -43 5 0 6 -91 12 -202 13
-38 0 -68 3 -68 7 0 3 -39 6 -87 7 -106 2 -177 8 -191 17 -6 3 -13 2 -17 -4
-4 -7 -13 -7 -26 0 -11 6 -43 10 -72 10 -54 -2 -89 4 -109 16 -7 4 -8 3 -4 -4
4 -7 1 -12 -9 -12 -10 0 -13 5 -9 13 6 9 4 9 -8 -1 -9 -7 -19 -9 -22 -4 -3 5
-21 7 -40 6 -20 -2 -36 1 -36 6 0 5 -6 7 -14 4 -8 -3 -17 -1 -20 4 -3 6 -20 7
-40 2 -18 -4 -41 -3 -50 2 -10 6 -16 5 -16 -2 0 -6 -5 -8 -10 -5 -6 4 -8 10
-6 14 3 4 -14 5 -37 2 -47 -7 -80 -3 -73 8 3 4 -9 7 -27 7 -18 0 -40 4 -49 8
-14 6 -18 4 -18 -10 0 -17 -1 -16 -16 2 -8 10 -13 13 -9 7 7 -15 -11 -18 -20
-4 -3 6 -13 10 -23 10 -9 0 -35 2 -57 5 -22 3 -62 7 -90 10 -27 2 -63 8 -80
12 -50 11 -69 12 -82 2 -7 -5 -14 -5 -18 2 -3 6 -11 8 -16 4 -5 -3 -17 0 -25
7 -13 10 -17 10 -23 0 -7 -10 -11 -10 -22 1 -8 7 -32 14 -54 16 -122 8 -144
10 -152 15 -4 2 -19 3 -33 2 -14 -1 -29 0 -35 4 -12 7 -28 10 -78 16 -21 2
-42 7 -47 10 -6 4 -10 0 -10 -7 0 -8 -3 -9 -8 -3 -7 11 -20 15 -65 21 -16 2
-25 -1 -22 -6 4 -6 1 -10 -4 -10 -6 0 -11 5 -11 11 0 5 -4 8 -9 4 -5 -3 -12
-1 -16 5 -4 6 -11 8 -16 4 -5 -3 -16 0 -24 6 -8 7 -15 9 -15 4 0 -5 -5 -2 -10
6 -6 10 -10 11 -10 3 0 -7 -9 -13 -20 -13 -11 0 -20 3 -20 8 0 4 -11 8 -25 8
-14 1 -25 -2 -25 -6 0 -4 -17 -2 -37 5 -21 7 -40 10 -43 5 -3 -4 -18 -6 -35
-3 -57 8 -123 8 -118 1 4 -8 -11 -12 -33 -9 -6 1 -17 -6 -24 -14 -7 -8 -17
-15 -22 -15 -6 0 -32 -18 -58 -40 -26 -22 -55 -40 -64 -40 -10 0 -15 -4 -12
-9 5 -8 -51 -61 -65 -61 -4 0 -9 -6 -12 -12 -3 -10 27 -13 132 -14 106 -1 185
-9 356 -37 220 -36 353 -54 605 -81 74 -8 245 -29 380 -45 135 -17 304 -38
375 -46 72 -8 166 -20 210 -25 44 -5 159 -17 255 -25 96 -8 225 -20 285 -25
111 -10 468 -36 625 -45 142 -9 353 -46 400 -70 73 -38 123 -134 124 -241 0
-60 -4 -80 -32 -136 -18 -36 -50 -85 -73 -108 -40 -41 -96 -73 -111 -64 -17
11 -7 66 22 122 17 33 30 64 30 70 0 5 7 23 15 38 17 32 20 90 6 99 -17 10
-238 28 -368 29 -56 0 -99 5 -96 9 3 5 -3 5 -13 0 -20 -9 -70 -10 -94 0 -8 3
-22 5 -30 6 -8 0 -28 0 -45 0 -55 1 -103 4 -265 16 -47 4 -93 7 -102 6 -10 0
-20 5 -24 10 -4 6 -11 6 -19 -1 -8 -7 -20 -8 -27 -4 -12 7 -51 12 -155 17 -24
1 -43 4 -43 7 0 3 -26 5 -57 4 -32 0 -62 1 -67 4 -4 2 -25 6 -45 8 -20 1 -63
6 -96 9 -33 4 -79 8 -102 9 -24 0 -43 3 -43 6 0 3 -18 4 -40 4 -22 -1 -43 2
-46 7 -3 5 -14 4 -26 -2 -13 -7 -18 -7 -14 -1 4 7 -11 10 -41 10 -46 0 -73 4
-114 17 -21 7 -101 15 -179 19 -25 2 -54 6 -65 9 -12 4 -47 9 -78 11 -31 3
-61 7 -65 10 -4 2 -35 8 -67 11 -33 4 -63 9 -67 12 -5 2 -8 -2 -8 -9 0 -10 -3
-9 -9 1 -7 10 -32 15 -83 17 -40 1 -75 3 -78 4 -3 1 -13 2 -22 1 -10 -1 -18 2
-18 8 0 6 -7 8 -15 5 -8 -4 -23 -3 -32 1 -10 4 -36 9 -58 11 -114 9 -136 12
-150 24 -9 8 -15 8 -15 2 0 -10 -10 -10 -70 3 -14 3 -41 8 -60 11 -19 3 -46 7
-60 10 -46 9 -85 15 -115 19 -16 2 -31 4 -32 4 -2 1 -4 0 -5 -1 -2 -1 -12 4
-24 10 -16 8 -24 8 -32 0 -7 -7 -12 -8 -12 -2 0 6 -10 11 -22 11 -13 1 -45 4
-73 8 -44 5 -107 6 -157 1 -18 -1 -97 -57 -98 -68 0 -5 -6 -8 -14 -8 -8 0 -18
-9 -21 -20 -3 -11 -11 -20 -16 -20 -6 0 -8 -4 -5 -9 3 -4 -6 -13 -21 -20 -14
-6 -23 -14 -20 -17 7 -8 -54 -60 -65 -56 -4 1 -8 -5 -8 -13 0 -9 -7 -18 -16
-22 -9 -3 -13 -12 -9 -21 3 -9 3 -14 0 -10 -7 7 -191 -171 -188 -182 1 -5 -4
-14 -12 -20 -8 -7 -15 -19 -15 -27 0 -8 -4 -12 -9 -8 -5 3 -12 1 -15 -3 -6
-10 60 -32 97 -32 35 0 62 -11 48 -20 -19 -11 -11 -220 9 -220 4 0 7 -6 8 -12
0 -7 3 -35 6 -63 4 -27 8 -67 9 -88 2 -22 10 -43 18 -48 9 -5 10 -9 2 -9 -7 0
-10 -9 -7 -22 9 -41 10 -198 2 -198 -4 0 -8 -7 -8 -16 0 -9 5 -12 12 -8 7 4 8
3 4 -4 -4 -7 -15 -12 -24 -12 -15 -1 -14 -2 2 -12 19 -10 18 -12 -10 -35 -22
-17 -26 -25 -16 -32 10 -6 10 -10 -2 -20 -8 -7 -20 -10 -26 -6 -6 4 -10 3 -9
-2 4 -16 -13 -43 -24 -36 -6 3 -7 1 -3 -5 4 -6 14 -8 24 -5 15 6 15 5 3 -10
-7 -9 -17 -15 -21 -12 -15 9 -23 -37 -9 -46 10 -6 6 -8 -11 -7 -16 2 -25 -2
-26 -12 -1 -8 -2 -22 -3 -30 -1 -12 -3 -12 -10 -2 -6 10 -11 2 -16 -25 -5 -21
-7 -44 -6 -50 1 -7 -3 -13 -10 -13 -8 0 -7 -5 2 -17 12 -14 12 -16 0 -8 -11 6
-13 4 -8 -9 4 -9 3 -14 -2 -11 -16 10 -17 -30 -1 -43 13 -10 12 -11 -4 -5 -14
5 -17 3 -11 -6 4 -8 2 -17 -6 -23 -11 -8 -10 -9 4 -4 21 7 22 -7 2 -28 -16
-16 -19 -27 -7 -25 19 3 23 -2 12 -16 -7 -8 -16 -12 -21 -9 -5 3 -9 1 -9 -5 0
-5 9 -13 21 -16 11 -4 19 -9 16 -11 -9 -9 -346 108 -422 147 -167 85 -354 223
-469 346 l-49 53 28 22 c16 13 61 46 100 73 108 76 232 174 299 236 34 31 77
67 97 80 58 38 310 249 315 264 3 7 -13 49 -35 94 -32 62 -41 92 -41 130 0 74
12 96 102 181 l81 79 -6 83 c-8 109 4 135 122 262 50 55 93 109 96 120 2 12 6
53 9 93 5 71 25 124 65 171 11 12 24 22 29 22 11 0 223 218 247 254 15 22 16
33 6 71 -6 24 -14 92 -18 149 l-6 105 48 73 c98 148 239 310 304 350 31 20 74
28 196 37 11 0 76 -6 145 -14z m-452 -2041 c13 -3 20 -9 17 -14 -3 -5 0 -12 6
-16 8 -5 8 -9 -1 -14 -14 -9 3 -49 26 -63 8 -4 18 -17 24 -27 10 -20 6 -20
-227 -20 -203 0 -235 2 -223 14 8 8 78 46 154 84 142 72 143 72 224 56z m130
-50 c128 -27 463 -64 722 -79 159 -9 342 -22 690 -50 173 -14 459 -36 635 -50
176 -14 367 -30 425 -36 58 -5 186 -14 285 -19 224 -11 315 -31 430 -96 46
-26 97 -61 112 -77 15 -17 23 -28 18 -24 -6 3 -71 13 -145 21 -74 9 -162 21
-195 26 -33 6 -96 12 -140 15 -44 3 -127 10 -185 16 -123 12 -147 14 -260 23
-125 10 -183 15 -300 25 -159 15 -316 27 -490 37 -41 3 -88 6 -105 8 -16 2
-40 4 -53 5 -13 0 -21 4 -19 9 3 4 -16 6 -41 5 -26 0 -53 3 -59 9 -7 6 -13 6
-13 1 0 -5 -9 -9 -19 -9 -11 0 -18 3 -16 7 3 3 -10 6 -27 7 -17 0 -35 7 -39
14 -7 11 -9 11 -9 0 0 -7 -4 -11 -9 -7 -5 3 -32 6 -60 6 -28 1 -51 5 -51 8 0
4 -21 8 -47 8 -70 2 -117 7 -128 15 -5 3 -44 5 -85 4 -41 -1 -83 2 -92 6 -12
6 -18 5 -18 -2 0 -6 -5 -8 -12 -4 -6 4 -30 8 -52 10 -23 1 -41 3 -41 4 0 3
-66 8 -264 20 -107 6 -204 12 -215 15 -12 2 -30 4 -42 4 -26 1 -68 36 -59 50
3 6 -2 11 -13 11 -23 0 -68 33 -83 61 -11 21 -15 21 69 3z m4341 -496 c-97
-107 -332 -329 -439 -415 -84 -68 -260 -187 -375 -256 -104 -61 -446 -227
-468 -227 -16 0 -8 8 28 29 28 16 57 36 64 45 12 15 86 42 104 38 4 -1 7 3 7
8 0 6 9 10 20 10 11 0 20 7 20 15 0 18 12 19 29 3 10 -11 11 -9 5 6 -5 14 -3
17 7 14 8 -3 19 0 25 6 29 27 55 46 64 46 5 0 15 9 22 19 6 10 17 17 24 14 6
-2 19 6 28 19 9 12 16 18 16 13 0 -6 3 -6 8 0 4 6 25 23 47 40 22 16 45 36 51
44 7 8 16 11 24 6 9 -5 11 -4 6 3 -5 8 2 12 19 12 14 0 24 4 21 9 -3 4 4 17
16 27 14 12 18 14 13 4 -5 -8 3 -4 16 10 42 42 111 95 120 92 5 -1 9 5 9 14 0
10 6 14 15 10 8 -3 14 -2 14 2 -3 19 2 42 9 40 8 -3 59 29 80 49 7 7 9 13 4
13 -5 0 -15 -7 -22 -15 -7 -8 -16 -15 -20 -15 -5 0 5 14 22 30 16 17 34 30 39
30 6 0 8 4 5 8 -3 5 6 16 19 26 14 10 23 22 20 26 -3 4 5 10 16 13 12 3 18 10
14 16 -3 6 1 11 10 11 8 0 18 7 21 15 4 8 10 15 16 15 5 0 19 11 32 25 13 14
28 25 34 25 5 0 12 7 16 15 3 8 11 15 18 15 6 0 22 9 33 20 22 21 107 59 134
60 7 0 -20 -37 -60 -82z m-5040 -795 c-12 -14 -12 -16 0 -8 11 6 13 3 9 -13
-4 -12 -2 -22 3 -22 5 0 9 -5 9 -11 0 -5 -4 -8 -9 -5 -7 5 -7 -29 0 -61 1 -4
0 -15 -4 -23 -13 -35 -13 -46 1 -59 12 -13 12 -16 -6 -22 -11 -4 -23 -12 -26
-18 -4 -7 -1 -8 8 -5 21 8 21 -19 1 -36 -8 -7 -15 -18 -14 -24 0 -7 2 -6 6 2
10 24 18 11 18 -28 0 -25 -5 -40 -12 -40 -30 0 -37 -63 -10 -81 5 -4 6 -12 2
-18 -5 -9 -10 -9 -20 -1 -9 8 -15 8 -20 0 -4 -6 -3 -9 2 -8 5 2 15 -3 24 -11
12 -12 13 -21 5 -48 -6 -18 -17 -33 -24 -33 -7 0 -11 -4 -7 -9 3 -5 1 -12 -5
-16 -12 -8 -13 -25 -1 -25 5 0 11 9 14 21 6 22 29 22 33 1 1 -7 0 -8 -3 -2 -2
5 -10 10 -16 10 -5 0 -7 -3 -4 -6 4 -4 -3 -20 -15 -37 -12 -17 -18 -28 -12
-25 5 3 15 0 22 -8 10 -12 10 -14 -2 -14 -10 0 -13 -6 -10 -15 5 -11 2 -14
-12 -9 -11 4 -16 3 -11 -1 4 -5 0 -20 -9 -34 l-15 -26 20 24 c19 21 21 21 21
4 0 -10 5 -24 11 -30 8 -8 7 -13 -2 -18 -8 -6 -10 -4 -4 6 6 11 5 11 -4 3 -10
-9 -10 -17 -2 -32 12 -23 5 -33 -17 -25 -11 5 -14 2 -9 -9 3 -9 0 -19 -8 -22
-8 -3 -13 -16 -11 -30 3 -28 16 -48 16 -25 0 10 2 11 8 2 4 -6 45 -14 92 -18
47 -4 87 -9 89 -11 7 -7 -450 -2 -524 6 -38 4 -62 8 -52 8 16 2 17 24 17 316
l0 314 78 56 c169 124 378 265 391 266 11 0 11 -3 0 -17z m3206 -444 c171 -10
384 -23 475 -29 91 -6 291 -17 445 -25 425 -23 772 -51 855 -70 127 -29 176
-63 279 -198 33 -43 33 -158 -4 -627 -39 -508 -69 -1019 -90 -1525 -17 -416
-20 -462 -34 -479 -6 -7 -8 -16 -4 -19 3 -4 1 -7 -6 -7 -8 0 -11 -6 -7 -17 4
-10 4 -14 0 -11 -3 4 -16 -7 -28 -25 -19 -28 -20 -34 -8 -43 12 -9 13 -12 2
-19 -9 -5 -11 -4 -6 3 17 27 -15 9 -48 -28 -20 -22 -36 -36 -36 -30 0 7 -6 7
-17 0 -20 -11 -72 -32 -90 -36 -7 -1 -43 -10 -80 -19 -37 -10 -88 -17 -113
-18 -159 -1 -911 35 -1202 58 -91 7 -217 14 -343 20 -562 26 -714 38 -785 62
-97 31 -225 103 -280 156 -31 30 -68 57 -82 60 -30 8 -30 5 5 -103 12 -36 22
-67 22 -70 0 -3 7 -16 14 -30 13 -23 13 -24 -2 -11 -9 7 -29 38 -43 68 -26 52
-28 65 -32 231 -5 209 1 263 138 1097 5 33 23 157 40 275 17 118 47 307 65
420 19 113 39 248 45 300 27 228 70 471 91 511 29 58 106 132 170 165 95 48
128 49 694 13z m-3915 -494 c0 -2 -9 -28 -21 -57 -20 -50 -20 -59 -9 -153 6
-55 23 -156 37 -225 14 -69 29 -142 33 -163 5 -27 4 -42 -6 -52 -8 -7 -14 -18
-14 -24 0 -5 -4 -13 -10 -16 -6 -4 -7 1 -3 11 5 13 2 15 -15 9 -14 -4 -22 -2
-22 6 0 9 -4 8 -15 -1 -8 -7 -15 -10 -15 -6 0 4 -13 0 -29 -8 -19 -10 -31 -12
-38 -5 -7 7 -15 5 -26 -5 -12 -12 -17 -13 -20 -3 -4 8 -6 7 -6 -3 -1 -9 -10
-16 -22 -16 -18 0 -19 2 -4 12 9 7 12 15 6 18 -12 8 -41 -21 -42 -42 0 -9 -3
-12 -5 -6 -3 7 -15 10 -27 7 -18 -4 -19 -3 -7 7 12 9 11 10 -7 5 -13 -3 -32 0
-46 10 -13 8 -27 12 -31 8 -4 -4 -4 1 0 12 6 15 4 17 -10 12 -9 -4 -15 -3 -12
2 3 5 -1 11 -9 15 -21 8 -125 168 -199 310 -71 133 -103 224 -83 231 7 2 64 9
127 15 112 10 278 41 430 79 75 19 120 25 120 16z m705 -1162 l390 -8 -390 -5
c-254 -3 -393 -2 -397 5 -5 7 -8 7 -8 0 0 -13 -9 -13 -209 -19 -90 -3 -165 -7
-167 -9 -1 -1 -6 -113 -10 -247 -3 -135 -8 -248 -10 -251 -2 -3 -4 -61 -5
-130 -2 -148 -14 -260 -30 -270 -6 -3 -77 -5 -157 -3 -183 5 -184 4 -178 -105
5 -90 19 -127 53 -136 29 -7 145 -8 183 -1 56 10 208 17 233 11 27 -7 28 -35
1 -35 -8 0 -17 -6 -20 -14 -4 -9 -17 -13 -40 -12 -19 2 -34 -1 -34 -5 0 -5 -3
-8 -7 -8 -27 4 -53 -2 -47 -12 4 -7 -1 -7 -16 1 -12 7 -25 8 -29 4 -9 -13 -34
-16 -26 -4 7 12 3 12 -19 4 -9 -3 -16 -12 -16 -20 0 -17 -16 -18 -26 -2 -5 7
-3 8 6 3 8 -5 11 -4 7 3 -11 17 -38 7 -52 -18 -8 -15 -23 -25 -39 -26 -14 0
-26 0 -26 2 0 1 4 14 10 28 7 20 6 24 -5 20 -7 -3 -11 -12 -8 -20 3 -8 -1 -14
-10 -14 -9 0 -19 -5 -23 -12 -5 -7 -2 -9 9 -5 11 4 14 2 10 -9 -6 -16 -29 -19
-38 -4 -11 17 -45 12 -38 -6 3 -8 12 -13 20 -10 8 3 11 1 8 -4 -3 -6 -14 -10
-23 -10 -10 0 -13 -3 -7 -8 17 -12 14 -95 -4 -110 -14 -11 -14 -12 0 -6 11 3
23 -3 32 -16 8 -12 18 -17 21 -12 3 6 -2 13 -12 17 -16 6 -16 7 0 16 11 6 25
6 35 1 10 -5 25 -7 33 -5 9 3 8 0 -3 -7 -14 -9 -16 -15 -7 -25 10 -12 8 -13
-9 -10 -12 2 -19 0 -16 -6 4 -5 13 -9 21 -9 8 0 17 -7 21 -17 6 -15 44 -16
477 -9 259 4 489 9 511 11 22 2 132 6 245 10 113 3 232 8 264 12 44 4 57 3 52
-6 -6 -9 26 -11 126 -10 73 0 151 -2 173 -6 22 -4 54 -9 70 -11 60 -8 324 -10
490 -3 94 4 228 10 299 13 94 4 134 2 145 -7 10 -8 13 -8 8 0 -5 7 0 9 13 6
22 -6 17 -23 -7 -23 -12 0 -13 -3 -4 -14 6 -7 9 -21 5 -30 -4 -11 -2 -15 8
-11 8 3 28 0 44 -6 16 -7 32 -13 37 -13 4 -1 6 -5 5 -9 -2 -5 24 -20 57 -33
33 -13 64 -29 69 -34 6 -6 18 -10 28 -10 10 0 18 -5 18 -11 0 -6 9 -8 20 -4
12 4 20 2 20 -5 0 -7 8 -10 20 -7 10 3 20 1 22 -3 2 -5 26 -11 53 -15 28 -3
61 -8 75 -11 29 -6 80 -11 170 -19 36 -3 92 -8 125 -11 33 -3 92 -7 130 -10
39 -3 84 -7 100 -9 160 -22 326 -27 535 -15 107 6 321 17 475 25 154 8 323 17
375 20 52 3 125 8 161 11 75 5 509 23 582 24 36 0 46 3 41 13 -6 10 -4 10 7 0
7 -7 22 -13 34 -13 15 0 17 2 6 9 -11 7 -9 11 9 21 18 10 21 10 14 -2 -6 -11
-5 -11 9 1 9 7 17 21 17 30 0 11 3 13 8 4 10 -16 52 11 52 34 0 9 6 13 15 10
8 -4 17 -1 21 5 4 6 3 8 -4 4 -6 -3 -13 7 -17 26 -5 21 -4 33 4 36 8 3 6 9 -6
18 -14 11 -15 13 -3 14 13 0 13 1 0 11 -12 8 -10 10 10 5 14 -2 54 -8 90 -11
200 -19 440 -50 547 -71 171 -33 239 -71 286 -159 17 -32 21 -57 20 -123 0
-73 -4 -88 -29 -129 -35 -55 -117 -105 -203 -122 -31 -6 -144 -15 -251 -21
-107 -6 -242 -15 -300 -20 -399 -37 -603 -48 -975 -54 -60 -1 -114 -4 -120 -7
-5 -4 -19 -4 -30 -2 -11 3 -27 5 -35 4 -62 0 -327 -12 -375 -16 -33 -2 -89 -7
-125 -9 -225 -16 -320 -26 -348 -37 -18 -7 -28 -6 -34 3 -5 9 -10 10 -15 2 -5
-6 -39 -11 -78 -12 -38 0 -88 -4 -110 -7 -22 -3 -63 -8 -90 -9 -28 -2 -60 -6
-73 -10 -14 -5 -22 -3 -22 4 0 6 -5 8 -11 4 -6 -3 -46 -8 -88 -10 -42 -1 -76
-3 -76 -4 0 -2 -35 -10 -65 -15 -14 -2 -40 -6 -57 -9 -20 -4 -33 -2 -33 4 0 7
-6 7 -18 1 -9 -5 -28 -9 -42 -9 -14 -1 -63 -3 -110 -7 -47 -3 -133 -7 -192 -9
-60 -1 -111 -5 -114 -9 -4 -3 -19 -3 -35 0 -21 4 -29 2 -29 -8 0 -11 -2 -11
-10 1 -8 12 -12 13 -19 2 -9 -15 -17 -15 -43 -1 -11 6 -18 5 -20 -3 -3 -8 -10
-8 -26 1 -17 9 -22 9 -22 -1 0 -9 -3 -9 -12 0 -7 7 -17 8 -28 2 -10 -5 -41 -8
-68 -6 -28 2 -54 1 -57 -3 -4 -3 -37 -7 -73 -9 -37 -1 -78 -3 -92 -5 -14 -1
-31 2 -37 7 -8 5 -13 5 -13 -2 0 -13 -38 -23 -45 -12 -3 5 -15 6 -28 4 -24 -6
-104 -14 -154 -15 -18 -1 -33 -5 -33 -9 0 -10 -22 -7 -63 9 -17 7 -26 7 -22 1
4 -6 -8 -10 -29 -10 -44 0 -39 1 -75 -10 -19 -5 -33 -4 -41 3 -10 9 -11 9 -6
0 4 -7 4 -13 -1 -14 -4 0 -44 -2 -88 -4 -67 -3 -190 -9 -350 -18 -16 -1 -33
-6 -37 -11 -4 -6 -13 -4 -22 3 -9 8 -16 10 -16 5 0 -5 -17 -9 -38 -9 -20 1
-54 -3 -76 -7 -21 -5 -64 -9 -95 -10 -31 0 -60 -3 -65 -6 -17 -9 -66 -10 -60
-1 6 11 -10 12 -20 2 -9 -10 -44 -13 -183 -15 -62 -2 -113 -5 -113 -9 0 -8
-38 -4 -47 6 -5 4 -2 5 6 0 10 -6 12 -4 6 5 -7 11 -10 10 -19 -1 -12 -16 -46
-21 -46 -8 0 5 -12 14 -27 20 -49 19 -63 19 -63 1 0 -15 -2 -15 -10 -2 -5 8
-10 11 -10 6 0 -4 -14 6 -32 22 -17 17 -34 29 -38 27 -4 -2 -7 2 -7 9 0 7 8
11 17 9 9 -2 23 4 31 13 12 16 12 17 -1 8 -8 -5 -22 -9 -30 -10 -53 -4 -54 -4
-43 -15 6 -6 9 -17 7 -24 -8 -19 16 -30 28 -14 8 12 9 11 5 -1 -2 -8 -10 -14
-18 -13 -27 3 -73 14 -80 18 -4 3 -9 -2 -13 -10 -6 -17 -26 -20 -26 -4 0 5 4
7 10 4 6 -3 7 1 4 9 -7 20 -24 11 -24 -12 0 -15 -2 -15 -10 -2 -8 12 -10 12
-10 -5 0 -15 -3 -16 -9 -7 -6 11 -11 10 -24 -3 -9 -9 -21 -13 -27 -10 -5 3
-10 -1 -10 -9 0 -9 -6 -16 -14 -16 -8 0 -18 -4 -21 -10 -4 -6 1 -7 12 -4 16 5
16 4 -1 -10 -11 -9 -25 -16 -32 -16 -37 0 -201 47 -279 80 -119 49 -182 72
-490 179 -357 123 -510 178 -543 195 -42 22 -108 98 -122 140 -7 21 -11 69 -8
109 6 119 72 222 164 257 76 29 262 57 507 76 51 4 90 11 92 18 2 6 6 360 10
786 3 426 9 778 13 782 4 4 43 9 87 11 97 5 778 0 1310 -10z"/>
<path d="M4245 8779 c-4 -6 -13 -8 -20 -5 -7 2 -32 -18 -55 -45 -23 -27 -45
-47 -48 -44 -3 3 -19 -15 -34 -40 -21 -33 -27 -53 -21 -68 4 -12 6 -28 4 -35
-2 -10 5 -9 28 2 52 27 186 16 521 -44 276 -49 818 -122 1270 -170 341 -37
374 -40 589 -60 143 -13 219 -16 231 -10 10 5 21 23 25 40 4 17 11 27 17 24 6
-4 9 -1 6 7 -3 8 6 37 19 64 12 28 23 60 23 71 0 19 -5 21 -40 19 -22 -2 -40
1 -40 5 0 4 -24 8 -52 9 -29 1 -66 4 -83 7 -16 3 -57 7 -90 10 -33 2 -83 5
-110 7 -28 2 -61 10 -74 16 -15 8 -21 9 -17 2 4 -6 2 -11 -3 -11 -6 0 -11 6
-11 13 0 9 -3 8 -9 -2 -5 -8 -11 -9 -15 -3 -3 5 -24 8 -46 6 -22 -2 -40 -1
-40 4 0 4 -36 7 -81 8 -54 0 -83 5 -89 13 -5 9 -10 10 -14 2 -5 -7 -15 -7 -34
0 -18 7 -28 7 -30 0 -2 -6 -9 -8 -15 -4 -6 4 -23 7 -38 8 -15 1 -35 7 -43 15
-14 11 -16 11 -11 -2 4 -10 -2 -14 -19 -14 -14 0 -24 5 -23 11 1 6 -19 10 -50
10 -28 -1 -50 2 -47 6 2 4 -7 6 -21 3 -16 -3 -25 0 -25 8 0 11 -2 11 -8 0 -8
-12 -66 -12 -78 1 -4 3 -16 2 -27 -4 -14 -8 -18 -8 -13 0 4 6 1 11 -6 12 -72
6 -91 8 -95 13 -3 3 -15 1 -26 -5 -15 -9 -18 -8 -12 2 6 9 3 11 -8 6 -10 -4
-17 -2 -17 4 0 7 -10 9 -24 5 -14 -3 -28 -1 -32 5 -4 8 -9 7 -15 -2 -7 -11 -9
-11 -9 1 0 13 -1 13 -10 0 -5 -8 -10 -10 -10 -4 0 6 -12 11 -27 12 -31 1 -150
21 -173 30 -8 3 -40 6 -70 7 -30 1 -67 7 -82 13 -22 9 -28 9 -28 -1 0 -8 -3
-8 -9 2 -5 7 -13 11 -19 7 -6 -3 -13 -3 -16 2 -4 7 -31 11 -111 16 -11 1 -26
5 -34 10 -7 5 -36 10 -65 11 -28 2 -51 4 -51 5 0 1 -11 3 -25 5 -14 2 -38 7
-55 10 -59 12 -224 15 -230 4z"/>
<path d="M4238 8284 c-2 -2 -20 -4 -41 -6 -20 -1 -37 -5 -37 -9 0 -4 -8 -9
-17 -13 -40 -13 -113 -73 -113 -93 0 -7 -15 -23 -32 -34 l-33 -21 40 6 c138
21 213 18 491 -18 153 -19 369 -47 479 -61 110 -14 283 -36 385 -50 402 -54
848 -97 1300 -125 85 -5 181 -12 213 -16 l58 -7 -6 42 c-7 62 -21 81 -55 81
-17 0 -30 5 -30 12 0 9 -3 9 -12 0 -16 -16 -31 -15 -22 1 4 6 4 9 -1 5 -4 -4
-14 -3 -21 3 -8 7 -29 7 -63 1 -27 -5 -55 -5 -62 -1 -8 4 -18 4 -24 -1 -15
-12 -45 -6 -56 11 -6 10 -9 11 -9 1 0 -9 -5 -10 -16 -4 -9 5 -25 7 -35 5 -11
-3 -19 0 -19 6 0 7 -11 9 -31 6 -19 -4 -28 -2 -24 5 8 13 -1 13 -26 0 -10 -6
-19 -7 -19 -2 0 5 -24 8 -54 7 -31 0 -52 3 -49 8 3 6 -8 8 -25 5 -17 -2 -29
-1 -27 3 3 3 -16 6 -40 5 -25 0 -45 -5 -45 -10 0 -5 -8 -2 -18 7 -14 13 -21
14 -30 5 -7 -7 -12 -8 -12 -2 0 6 -18 11 -40 11 -24 0 -37 -3 -34 -9 4 -6 -1
-6 -13 0 -18 10 -88 22 -158 27 -16 1 -32 3 -35 4 -3 1 -36 4 -74 6 -38 3 -72
7 -74 10 -3 3 -12 -1 -20 -8 -10 -7 -13 -8 -9 -1 5 8 -6 12 -33 12 -22 0 -44
4 -50 7 -5 3 -10 0 -10 -7 0 -10 -2 -10 -8 0 -5 7 -28 15 -53 17 -24 3 -57 7
-73 11 -21 4 -26 3 -21 -6 4 -7 -7 -4 -25 5 -19 10 -47 15 -66 13 -19 -2 -34
-1 -34 3 0 10 -34 6 -41 -5 -4 -5 -10 1 -14 13 -4 13 -11 18 -18 14 -19 -12
-38 -12 -30 0 4 6 0 8 -9 5 -8 -4 -21 -2 -29 2 -8 6 -16 4 -21 -3 -6 -9 -8 -9
-8 1 0 7 -4 10 -10 7 -5 -3 -10 -1 -10 6 0 7 -3 10 -6 7 -3 -4 -19 -2 -35 2
-28 8 -42 -3 -16 -13 7 -3 5 -6 -5 -6 -17 -1 -23 11 -19 33 1 5 -6 3 -15 -5
-13 -11 -18 -11 -21 -2 -3 9 -10 10 -23 3 -13 -7 -21 -6 -30 5 -6 7 -18 11
-26 8 -8 -3 -22 1 -31 8 -10 8 -14 9 -10 2 4 -6 3 -14 -2 -17 -5 -3 -11 1 -15
9 -3 8 -12 12 -21 9 -8 -4 -26 1 -40 10 -19 13 -23 13 -19 2 6 -15 -12 -16
-35 -2 -8 5 -16 4 -21 -4 -6 -10 -9 -9 -12 1 -2 7 -20 14 -39 15 -19 1 -63 8
-99 14 -36 7 -84 12 -107 11 -24 0 -43 4 -43 10 0 5 -12 9 -27 8 -16 0 -49 2
-75 4 -26 3 -49 3 -50 1z"/>
<path d="M6176 4868 c-3 -18 -10 -76 -17 -128 -6 -52 -20 -139 -30 -192 -11
-55 -18 -114 -14 -135 3 -26 2 -32 -3 -18 -8 17 -10 15 -14 -15 -3 -19 -4 -37
-2 -39 8 -9 228 -21 729 -41 292 -11 622 -25 735 -30 113 -6 267 -10 343 -10
l137 0 0 26 c0 21 3 24 14 15 11 -9 15 -6 18 14 4 20 2 23 -7 15 -9 -7 -15 -7
-19 -1 -4 5 -2 12 3 16 6 3 8 12 5 19 -3 8 0 17 7 22 9 5 10 2 6 -9 -4 -10 -2
-17 4 -17 7 0 9 10 5 25 -4 14 -2 25 4 25 5 0 10 5 10 11 0 5 -4 7 -10 4 -5
-3 -10 1 -10 9 0 8 8 17 18 19 16 4 16 5 0 6 -22 1 -24 21 -3 21 10 0 14 9 13
25 -3 31 -6 31 -18 3 -6 -17 -9 -19 -9 -6 -1 16 38 62 46 54 2 -2 -6 -71 -18
-155 -13 -83 -21 -153 -18 -155 2 -3 47 -6 98 -7 85 -2 95 0 101 17 4 10 13
88 19 172 7 84 19 192 26 240 7 51 9 94 4 103 -11 21 -45 24 -434 44 -159 8
-373 19 -475 25 -102 5 -320 17 -485 25 -165 9 -378 20 -474 25 -95 6 -197 10
-227 10 -52 0 -53 -1 -58 -32z"/>
<path d="M6112 4072 c-34 -22 -59 -120 -36 -141 8 -7 183 -23 530 -47 50 -3
95 -9 100 -12 5 -4 15 -27 21 -52 6 -25 15 -54 18 -65 6 -16 5 -17 -4 -5 -9
13 -11 13 -11 -2 0 -9 -8 -24 -17 -33 -18 -19 -35 -19 -380 7 -146 10 -167 10
-227 -6 -36 -10 -70 -23 -75 -30 -6 -7 -9 -31 -8 -53 l1 -42 66 -10 c74 -11
178 -18 400 -27 85 -3 167 -10 181 -15 23 -9 25 -15 23 -54 -1 -25 1 -47 6
-50 5 -3 7 -12 3 -20 -3 -8 0 -15 6 -15 6 0 11 -6 11 -14 0 -24 -59 -30 -235
-26 -93 2 -242 4 -330 5 l-159 0 -10 -26 c-16 -48 -1 -75 51 -92 57 -19 126
-25 378 -37 105 -4 203 -13 219 -19 l29 -12 -6 -86 c-3 -47 -9 -88 -12 -91 -9
-9 -202 -7 -365 3 -80 5 -189 9 -243 9 l-98 1 -20 -58 c-11 -32 -17 -62 -15
-66 8 -12 73 -19 331 -36 127 -8 264 -17 306 -21 65 -5 77 -4 82 10 4 9 11 16
17 16 6 0 3 -12 -8 -27 -11 -16 -22 -55 -26 -88 -4 -33 -12 -75 -17 -92 -12
-38 4 -37 -234 -23 -88 5 -235 13 -327 16 -187 8 -198 5 -198 -53 0 -45 50
-97 106 -111 57 -15 492 -45 829 -57 88 -3 259 -10 380 -16 121 -5 384 -16
584 -24 339 -13 366 -13 410 3 41 16 46 21 49 51 4 38 -9 51 -50 51 -16 0 -34
9 -45 24 -18 23 -23 24 -298 40 -244 14 -282 18 -293 33 -18 24 -10 182 9 194
8 5 64 5 124 1 61 -4 201 -7 313 -7 228 0 232 1 224 70 -7 61 -28 66 -412 90
-129 8 -238 15 -242 15 -4 0 -9 44 -10 98 l-3 97 -40 0 -40 0 -2 -80 c-1 -44
-5 -91 -8 -104 l-6 -24 -142 7 c-306 15 -506 33 -522 48 -23 22 4 184 33 196
13 5 588 -15 646 -23 61 -8 776 -39 781 -34 3 3 -2 22 -10 42 -8 20 -15 48
-15 62 0 32 -20 40 -125 49 -44 3 -91 8 -104 11 -14 2 -108 7 -210 11 -109 4
-192 11 -200 18 -10 8 -12 28 -7 91 4 44 10 83 14 86 6 5 366 -8 630 -23 l62
-4 2 31 c0 16 2 43 3 58 3 42 -5 44 -240 67 -60 6 -164 11 -230 12 -66 0 -137
5 -157 11 -42 11 -38 -1 -42 137 l-1 35 65 0 c63 0 571 -16 607 -19 16 -1 18
9 21 75 l3 76 -58 6 c-63 7 -309 19 -868 42 -198 8 -387 17 -420 20 -33 2
-100 7 -150 10 -49 3 -110 8 -135 10 -25 2 -85 7 -135 10 -131 8 -241 15 -315
21 -36 2 -71 1 -78 -4z m1085 -223 c155 -6 285 -15 290 -18 5 -3 7 -41 5 -83
l-4 -78 -162 0 c-241 1 -473 15 -491 30 -20 17 -19 94 2 131 17 28 34 37 63
33 8 -2 142 -8 297 -15z m47 -324 c131 -8 240 -16 242 -17 7 -7 -38 -164 -50
-176 -11 -11 -66 -12 -322 -2 -170 6 -315 13 -322 16 -10 3 -12 20 -7 71 3 38
8 77 10 89 9 44 26 44 449 19z m-109 -720 c138 -7 257 -16 266 -20 20 -7 29
-47 29 -119 0 -90 -1 -90 -191 -82 -320 14 -559 32 -568 41 -9 10 1 96 20 168
l10 37 92 -5 c51 -4 205 -12 342 -20z"/>
<path d="M8354 1579 c-22 -23 -25 -34 -22 -75 l3 -49 54 -7 c36 -6 58 -5 67 3
23 19 -3 42 -38 35 -15 -3 -28 -1 -28 4 0 16 66 11 80 -6 23 -27 47 -35 74
-24 14 5 26 16 26 25 0 8 4 15 9 15 5 0 7 -8 4 -19 -4 -16 1 -18 36 -18 41 0
60 10 41 22 -11 7 -14 58 -3 68 9 10 13 57 4 57 -4 0 -16 -9 -26 -20 -10 -11
-26 -20 -37 -20 -23 0 -23 9 0 27 16 13 15 14 -8 9 -14 -3 -31 -6 -39 -6 -11
0 -9 -4 5 -15 18 -15 17 -16 -14 -10 -28 6 -37 2 -62 -26 -17 -17 -34 -28 -38
-24 -4 4 -1 10 6 12 6 3 12 10 12 16 0 6 7 18 16 28 14 16 12 17 -41 21 -50 3
-59 0 -81 -23z"/>
</g>
</svg>
